# xmcd
# 
# Track frame offsets:
#     183
#     53340
#     79333
#     114945
#     147183
#     168670
#     216633
#     263678
#     280383
# 
# Disc length: 4339
# 
# Revision: 0
# Processed by: cddbd v1.5.2PL0 Copyright (c) Steve Scherf et al.
# Submitted via: BonkEnc v1.0.8
# 
DISCID=8210f109
DTITLE=Dizzy Gillespie - Dizzy Gillespie At Newport
DYEAR=1957
DGENRE=Jazz
TTITLE0=Dizzy's Blues
TTITLE1=School Days
TTITLE2=Doodlin'
TTITLE3=Manteca
TTITLE4=I Remember Clifford
TTITLE5=Cool Breeze
TTITLE6=Selections from Zodiac Suite
TTITLE7=Carloca
TTITLE8=A Night in Tunisia
EXTD=YEAR: 1957
EXTT0=
EXTT1=
EXTT2=
EXTT3=
EXTT4=
EXTT5=
EXTT6=
EXTT7=
EXTT8=
PLAYORDER=
